<svg width="20" height="20" viewBox="0 0 20 20" fill="none" xmlns="http://www.w3.org/2000/svg">
<path fill-rule="evenodd" clip-rule="evenodd" d="M5.00016 4.79167C4.42487 4.79167 3.9585 5.25804 3.9585 5.83333V15.8333C3.9585 16.4086 4.42487 16.875 5.00016 16.875H15.0002C15.5755 16.875 16.0418 16.4086 16.0418 15.8333V5.83333C16.0418 5.25804 15.5755 4.79167 15.0002 4.79167H5.00016ZM2.7085 5.83333C2.7085 4.56768 3.73451 3.54167 5.00016 3.54167H15.0002C16.2658 3.54167 17.2918 4.56768 17.2918 5.83333V15.8333C17.2918 17.099 16.2658 18.125 15.0002 18.125H5.00016C3.73451 18.125 2.7085 17.099 2.7085 15.8333V5.83333Z" fill="#111827"/>
<path fill-rule="evenodd" clip-rule="evenodd" d="M13.3335 1.875C13.6787 1.875 13.9585 2.15482 13.9585 2.5V5.83333C13.9585 6.17851 13.6787 6.45833 13.3335 6.45833C12.9883 6.45833 12.7085 6.17851 12.7085 5.83333V2.5C12.7085 2.15482 12.9883 1.875 13.3335 1.875Z" fill="#111827"/>
<path fill-rule="evenodd" clip-rule="evenodd" d="M6.66683 1.875C7.01201 1.875 7.29183 2.15482 7.29183 2.5V5.83333C7.29183 6.17851 7.01201 6.45833 6.66683 6.45833C6.32165 6.45833 6.04183 6.17851 6.04183 5.83333V2.5C6.04183 2.15482 6.32165 1.875 6.66683 1.875Z" fill="#111827"/>
<path fill-rule="evenodd" clip-rule="evenodd" d="M2.7085 9.16667C2.7085 8.82149 2.98832 8.54167 3.3335 8.54167H16.6668C17.012 8.54167 17.2918 8.82149 17.2918 9.16667C17.2918 9.51184 17.012 9.79167 16.6668 9.79167H3.3335C2.98832 9.79167 2.7085 9.51184 2.7085 9.16667Z" fill="#111827"/>
<path fill-rule="evenodd" clip-rule="evenodd" d="M8.3335 12.5C8.3335 12.0398 8.70659 11.6667 9.16683 11.6667H10.0002C10.4604 11.6667 10.8335 12.0398 10.8335 12.5C10.8335 12.9602 10.4604 13.3333 10.0002 13.3333H9.16683C8.70659 13.3333 8.3335 12.9602 8.3335 12.5Z" fill="#111827"/>
<path fill-rule="evenodd" clip-rule="evenodd" d="M10.0002 11.875C10.3453 11.875 10.6252 12.1548 10.6252 12.5V15C10.6252 15.3452 10.3453 15.625 10.0002 15.625C9.65498 15.625 9.37516 15.3452 9.37516 15V12.5C9.37516 12.1548 9.65498 11.875 10.0002 11.875Z" fill="#111827"/>
</svg>
