<svg width="16" height="16" viewBox="0 0 16 16" fill="none" xmlns="http://www.w3.org/2000/svg">
<path d="M11.34 8.48669C11.734 8.48669 12.0534 8.16732 12.0534 7.77336C12.0534 7.37939 11.734 7.06006 11.34 7.06006C10.9461 7.06006 10.6267 7.37939 10.6267 7.77336C10.6267 8.16732 10.9461 8.48669 11.34 8.48669Z" stroke="#1A1C1E" stroke-width="1.2" stroke-linecap="round" stroke-linejoin="round"/>
<path d="M13.3335 3.99992V5.19324C13.1668 5.17324 12.9735 5.15991 12.7668 5.15991H9.91349C8.48683 5.15991 8.01349 5.63327 8.01349 7.05994V10.4666H4.00016C1.86683 10.4666 1.3335 9.93326 1.3335 7.79993V3.99992C1.3335 1.86659 1.86683 1.33325 4.00016 1.33325H10.6668C12.8002 1.33325 13.3335 1.86659 13.3335 3.99992Z" stroke="#1A1C1E" stroke-width="1.2" stroke-linecap="round" stroke-linejoin="round"/>
<path d="M6 10.4667V13.3333" stroke="#1A1C1E" stroke-width="1.2" stroke-linecap="round" stroke-linejoin="round"/>
<path d="M1.3335 7.93335H8.00016" stroke="#1A1C1E" stroke-width="1.2" stroke-linecap="round" stroke-linejoin="round"/>
<path d="M3.96655 13.3333H7.99988" stroke="#1A1C1E" stroke-width="1.2" stroke-linecap="round" stroke-linejoin="round"/>
<path d="M11.3398 8.48657C11.7338 8.48657 12.0531 8.1672 12.0531 7.77323C12.0531 7.37927 11.7338 7.05994 11.3398 7.05994C10.9458 7.05994 10.6265 7.37927 10.6265 7.77323C10.6265 8.1672 10.9458 8.48657 11.3398 8.48657Z" stroke="#1A1C1E" stroke-width="1.2" stroke-miterlimit="10" stroke-linecap="round" stroke-linejoin="round"/>
<path d="M13.3332 5.19324C13.1665 5.17324 12.9732 5.15991 12.7665 5.15991H9.91319C8.48652 5.15991 8.01318 5.63327 8.01318 7.05994V12.7666C8.01318 14.1933 8.48652 14.6666 9.91319 14.6666H12.7665C14.1932 14.6666 14.6665 14.1933 14.6665 12.7666V7.05994C14.6665 5.83994 14.3199 5.3199 13.3332 5.19324ZM11.3399 7.05994C11.7332 7.05994 12.0532 7.3799 12.0532 7.77323C12.0532 8.16657 11.7332 8.48657 11.3399 8.48657C10.9465 8.48657 10.6265 8.16657 10.6265 7.77323C10.6265 7.3799 10.9465 7.05994 11.3399 7.05994ZM11.3399 12.7666C10.5532 12.7666 9.91319 12.1266 9.91319 11.3399C9.91319 11.0133 10.0265 10.7066 10.2132 10.4666C10.4732 10.1333 10.8799 9.91325 11.3399 9.91325C11.6999 9.91325 12.0265 10.0466 12.2732 10.2599C12.5732 10.5266 12.7665 10.9133 12.7665 11.3399C12.7665 12.1266 12.1265 12.7666 11.3399 12.7666Z" stroke="#1A1C1E" stroke-width="1.2" stroke-miterlimit="10" stroke-linecap="round" stroke-linejoin="round"/>
<path d="M12.7667 11.34C12.7667 12.1267 12.1267 12.7667 11.34 12.7667C10.5533 12.7667 9.91333 12.1267 9.91333 11.34C9.91333 11.0133 10.0267 10.7067 10.2133 10.4667C10.4733 10.1333 10.88 9.91333 11.34 9.91333C11.7 9.91333 12.0267 10.0467 12.2733 10.26C12.5733 10.5267 12.7667 10.9133 12.7667 11.34Z" stroke="#1A1C1E" stroke-width="1.2" stroke-miterlimit="10" stroke-linecap="round" stroke-linejoin="round"/>
<path d="M11.3398 8.48657C11.7338 8.48657 12.0531 8.1672 12.0531 7.77323C12.0531 7.37927 11.7338 7.05994 11.3398 7.05994C10.9458 7.05994 10.6265 7.37927 10.6265 7.77323C10.6265 8.1672 10.9458 8.48657 11.3398 8.48657Z" stroke="#1A1C1E" stroke-width="1.2" stroke-miterlimit="10" stroke-linecap="round" stroke-linejoin="round"/>
</svg>
