<svg width="16" height="16" viewBox="0 0 16 16" fill="none" xmlns="http://www.w3.org/2000/svg">
<path d="M4 6.66659V5.33325C4 3.12659 4.66667 1.33325 8 1.33325C11.3333 1.33325 12 3.12659 12 5.33325V6.66659" stroke="#1A1C1E" stroke-width="1.2" stroke-linecap="round" stroke-linejoin="round"/>
<path d="M8.00016 12.3333C8.92064 12.3333 9.66683 11.5871 9.66683 10.6667C9.66683 9.74619 8.92064 9 8.00016 9C7.07969 9 6.3335 9.74619 6.3335 10.6667C6.3335 11.5871 7.07969 12.3333 8.00016 12.3333Z" stroke="#1A1C1E" stroke-width="1.2" stroke-linecap="round" stroke-linejoin="round"/>
<path d="M11.3335 14.6667H4.66683C2.00016 14.6667 1.3335 14.0001 1.3335 11.3334V10.0001C1.3335 7.33341 2.00016 6.66675 4.66683 6.66675H11.3335C14.0002 6.66675 14.6668 7.33341 14.6668 10.0001V11.3334C14.6668 14.0001 14.0002 14.6667 11.3335 14.6667Z" stroke="#1A1C1E" stroke-width="1.2" stroke-linecap="round" stroke-linejoin="round"/>
</svg>
