<svg width="87" height="28" viewBox="0 0 87 28" fill="none" xmlns="http://www.w3.org/2000/svg">
<rect x="0.311111" y="4.35554" width="19.2889" height="19.2889" rx="3.42222" fill="#061237" stroke="#FCFBFE" stroke-width="0.622222"/>
<path fill-rule="evenodd" clip-rule="evenodd" d="M5.53448 10.7967C5.53448 10.5066 5.74555 10.2596 6.03211 10.2144L9.86369 9.60998C9.92454 9.60038 9.98653 9.60038 10.0474 9.60998L13.879 10.2144C14.1655 10.2596 14.3766 10.5066 14.3766 10.7967V16.4459C14.3766 16.6648 14.2552 16.8658 14.0615 16.9676L10.2299 18.9824C10.0581 19.0727 9.85294 19.0727 9.6812 18.9824L5.84962 16.9676C5.65583 16.8658 5.53448 16.6648 5.53448 16.4459L5.53448 10.7967Z" fill="#FFB7A1"/>
<path fill-rule="evenodd" clip-rule="evenodd" d="M9.43976 15.5064C9.31082 15.5064 9.18187 15.4573 9.07871 15.3591L8.04713 14.3766C7.84082 14.1801 7.84082 13.8854 8.04713 13.6889C8.25345 13.4924 8.58871 13.4924 8.76924 13.6889L9.43976 14.3275L11.1419 12.7064C11.3482 12.5099 11.6577 12.5099 11.864 12.7064C12.0703 12.9029 12.0703 13.1976 11.864 13.3941L9.80082 15.3591C9.69766 15.4573 9.56871 15.5064 9.43976 15.5064Z" fill="#DC1C3D"/>
<path d="M26.0817 23V6.312H28.5457L34.8177 15.0032H33.5857L39.7457 6.312H42.2097V23H39.5889V9.4256L40.5745 9.6944L34.2801 18.296H34.0113L27.8513 9.6944L28.7249 9.4256V23H26.0817ZM45.289 23V10.8816H47.8202V23H45.289ZM45.289 9.224V6.312H47.8202V9.224H45.289ZM55.1352 23.2688C53.8957 23.2688 52.8056 22.9627 51.8648 22.3504C50.9389 21.7381 50.2893 20.9168 49.916 19.8864L51.8648 18.968C52.1933 19.6549 52.6413 20.2 53.2088 20.6032C53.7912 21.0064 54.4333 21.208 55.1352 21.208C55.7325 21.208 56.2178 21.0736 56.5912 20.8048C56.9645 20.536 57.1512 20.1701 57.1512 19.7072C57.1512 19.4085 57.069 19.1696 56.9048 18.9904C56.7405 18.7963 56.5314 18.6395 56.2776 18.52C56.0386 18.4005 55.7922 18.3109 55.5384 18.2512L53.6344 17.7136C52.589 17.4149 51.805 16.9669 51.2824 16.3696C50.7746 15.7573 50.5208 15.048 50.5208 14.2416C50.5208 13.5099 50.7074 12.8752 51.0808 12.3376C51.4541 11.7851 51.9693 11.3595 52.6264 11.0608C53.2834 10.7621 54.0226 10.6128 54.844 10.6128C55.949 10.6128 56.9346 10.8891 57.8008 11.4416C58.6669 11.9792 59.2792 12.7333 59.6376 13.704L57.6888 14.6224C57.4498 14.04 57.069 13.5771 56.5464 13.2336C56.0386 12.8901 55.4637 12.7184 54.8216 12.7184C54.269 12.7184 53.8285 12.8528 53.5 13.1216C53.1714 13.3755 53.0072 13.7115 53.0072 14.1296C53.0072 14.4133 53.0818 14.6523 53.2312 14.8464C53.3805 15.0256 53.5746 15.1749 53.8136 15.2944C54.0525 15.3989 54.2989 15.4885 54.5528 15.5632L56.524 16.1456C57.5245 16.4293 58.2936 16.8773 58.8312 17.4896C59.3688 18.0869 59.6376 18.8037 59.6376 19.64C59.6376 20.3568 59.4434 20.9915 59.0552 21.544C58.6818 22.0816 58.1592 22.5072 57.4872 22.8208C56.8152 23.1195 56.0312 23.2688 55.1352 23.2688ZM65.622 23.2688C64.8007 23.2688 64.0764 23.1269 63.4492 22.8432C62.8369 22.5445 62.3591 22.1413 62.0156 21.6336C61.6721 21.1109 61.5004 20.4987 61.5004 19.7968C61.5004 19.1397 61.6423 18.5499 61.926 18.0272C62.2247 17.5045 62.6801 17.064 63.2924 16.7056C63.9047 16.3472 64.6737 16.0933 65.5996 15.944L69.8108 15.2496V17.2432L66.0924 17.8928C65.4204 18.0123 64.9276 18.2288 64.614 18.5424C64.3004 18.8411 64.1436 19.2293 64.1436 19.7072C64.1436 20.1701 64.3153 20.5509 64.6588 20.8496C65.0172 21.1333 65.4727 21.2752 66.0252 21.2752C66.7121 21.2752 67.3095 21.1259 67.8172 20.8272C68.3399 20.5285 68.7431 20.1328 69.0268 19.64C69.3105 19.1323 69.4524 18.5723 69.4524 17.96V14.8464C69.4524 14.2491 69.2284 13.7637 68.7804 13.3904C68.3473 13.0021 67.7649 12.808 67.0332 12.808C66.3612 12.808 65.7713 12.9872 65.2636 13.3456C64.7708 13.6891 64.4049 14.1371 64.166 14.6896L62.0604 13.6368C62.2844 13.0395 62.6503 12.5168 63.158 12.0688C63.6657 11.6059 64.2556 11.2475 64.9276 10.9936C65.6145 10.7397 66.3388 10.6128 67.1004 10.6128C68.0561 10.6128 68.8999 10.792 69.6316 11.1504C70.3783 11.5088 70.9532 12.0091 71.3564 12.6512C71.7745 13.2784 71.9836 14.0101 71.9836 14.8464V23H69.5644V20.8048L70.0796 20.872C69.7959 21.3648 69.43 21.7904 68.982 22.1488C68.5489 22.5072 68.0487 22.7835 67.4812 22.9776C66.9287 23.1717 66.3089 23.2688 65.622 23.2688ZM79.142 23.2688C78.231 23.2688 77.4321 23.0672 76.7452 22.664C76.0582 22.2459 75.5206 21.6709 75.1324 20.9392C74.759 20.1925 74.5724 19.3339 74.5724 18.3632V10.8816H77.1036V18.1392C77.1036 18.6917 77.2156 19.1771 77.4396 19.5952C77.6636 20.0133 77.9772 20.3419 78.3804 20.5808C78.7836 20.8048 79.2465 20.9168 79.7692 20.9168C80.3068 20.9168 80.7772 20.7973 81.1804 20.5584C81.5836 20.3195 81.8972 19.9835 82.1212 19.5504C82.3601 19.1173 82.4796 18.6096 82.4796 18.0272V10.8816H84.9884V23H82.5916V20.6256L82.8604 20.9392C82.5766 21.6859 82.1062 22.2608 81.4492 22.664C80.7921 23.0672 80.023 23.2688 79.142 23.2688Z" fill="#DC1C3D"/>
</svg>
