<svg width="29" height="28" viewBox="0 0 29 28" fill="none" xmlns="http://www.w3.org/2000/svg">
<path fill-rule="evenodd" clip-rule="evenodd" d="M14.4999 12.8333C16.4329 12.8333 17.9999 11.2662 17.9999 9.33325C17.9999 7.40026 16.4329 5.83325 14.4999 5.83325C12.5669 5.83325 10.9999 7.40026 10.9999 9.33325C10.9999 11.2662 12.5669 12.8333 14.4999 12.8333ZM14.4999 22.1666C18.3659 22.1666 21.4999 20.5996 21.4999 18.6666C21.4999 16.7336 18.3659 15.1666 14.4999 15.1666C10.6339 15.1666 7.49992 16.7336 7.49992 18.6666C7.49992 20.5996 10.6339 22.1666 14.4999 22.1666ZM7.94518 15.1888C5.0639 15.3665 2.83325 16.5947 2.83325 18.0834C2.83325 19.3107 4.34932 20.3609 6.49615 20.7915C6.01642 20.1419 5.74992 19.423 5.74992 18.6667C5.74992 17.3327 6.57914 16.1149 7.94518 15.1888ZM23.25 18.6667C23.25 19.423 22.9835 20.1419 22.5038 20.7915C24.6506 20.3609 26.1667 19.3107 26.1667 18.0834C26.1667 16.5947 23.936 15.3665 21.0547 15.1888C22.4208 16.1149 23.25 17.3327 23.25 18.6667ZM18.8379 12.2912C19.4134 11.4489 19.7499 10.4304 19.7499 9.33325C19.7499 8.96918 19.7128 8.61377 19.6423 8.27058C19.8606 8.20299 20.0927 8.16659 20.3332 8.16659C21.6219 8.16659 22.6665 9.21125 22.6665 10.4999C22.6665 11.7886 21.6219 12.8333 20.3332 12.8333C19.7642 12.8333 19.2428 12.6296 18.8379 12.2912ZM8.66659 8.16659C8.90714 8.16659 9.13919 8.20299 9.35753 8.27058C9.28698 8.61377 9.24992 8.96918 9.24992 9.33325C9.24992 10.4304 9.58645 11.4489 10.1619 12.2912C9.75698 12.6296 9.23557 12.8333 8.66659 12.8333C7.37792 12.8333 6.33325 11.7886 6.33325 10.4999C6.33325 9.21125 7.37792 8.16659 8.66659 8.16659Z" fill="#DC1C3D"/>
</svg>
