<svg width="29" height="28" viewBox="0 0 29 28" fill="none" xmlns="http://www.w3.org/2000/svg">
<path fill-rule="evenodd" clip-rule="evenodd" d="M5.16691 2.33337C3.87825 2.33337 2.83358 3.37804 2.83358 4.66671V7.00004C2.83358 8.2887 3.87825 9.33337 5.16691 9.33337H9.83358C11.1222 9.33337 12.1669 8.2887 12.1669 7.00004V4.66671C12.1669 3.37804 11.1222 2.33337 9.83358 2.33337H5.16691ZM5.16683 14.0001C3.87817 14.0001 2.8335 15.0447 2.8335 16.3334V23.3334C2.8335 24.6221 3.87817 25.6667 5.16683 25.6667H9.8335C11.1222 25.6667 12.1668 24.6221 12.1668 23.3334V16.3334C12.1668 15.0447 11.1222 14.0001 9.8335 14.0001H5.16683ZM16.8335 4.66673C16.8335 3.37806 17.8782 2.33339 19.1668 2.33339H23.8335C25.1222 2.33339 26.1668 3.37806 26.1668 4.66673V11.6667C26.1668 12.9554 25.1222 14.0001 23.8335 14.0001H19.1668C17.8782 14.0001 16.8335 12.9554 16.8335 11.6667V4.66673ZM19.1668 18.6667C17.8782 18.6667 16.8335 19.7114 16.8335 21.0001V23.3334C16.8335 24.6221 17.8782 25.6667 19.1668 25.6667H23.8335C25.1222 25.6667 26.1668 24.6221 26.1668 23.3334V21.0001C26.1668 19.7114 25.1222 18.6667 23.8335 18.6667H19.1668Z" fill="#DC1C3D"/>
</svg>
