<svg width="26" height="26" viewBox="0 0 26 26" fill="none" xmlns="http://www.w3.org/2000/svg">
<path d="M1.33325 3.66671C1.33325 2.37804 2.37792 1.33337 3.66659 1.33337H8.33325C9.62192 1.33337 10.6666 2.37804 10.6666 3.66671V6.00004C10.6666 7.28871 9.62192 8.33337 8.33325 8.33337H3.66659C2.37792 8.33337 1.33325 7.28871 1.33325 6.00004V3.66671Z" stroke="#ACB5BB" stroke-width="2" stroke-linejoin="round"/>
<path d="M1.33325 15.3334C1.33325 14.0447 2.37792 13 3.66659 13H8.33325C9.62192 13 10.6666 14.0447 10.6666 15.3334V22.3334C10.6666 23.622 9.62192 24.6667 8.33325 24.6667H3.66659C2.37792 24.6667 1.33325 23.622 1.33325 22.3334V15.3334Z" stroke="#ACB5BB" stroke-width="2" stroke-linejoin="round"/>
<path d="M15.3333 3.66671C15.3333 2.37804 16.3779 1.33337 17.6666 1.33337H22.3333C23.6219 1.33337 24.6666 2.37804 24.6666 3.66671V10.6667C24.6666 11.9554 23.6219 13 22.3333 13H17.6666C16.3779 13 15.3333 11.9554 15.3333 10.6667V3.66671Z" stroke="#ACB5BB" stroke-width="2" stroke-linejoin="round"/>
<path d="M15.3333 20C15.3333 18.7114 16.3779 17.6667 17.6666 17.6667H22.3333C23.6219 17.6667 24.6666 18.7114 24.6666 20V22.3334C24.6666 23.622 23.6219 24.6667 22.3333 24.6667H17.6666C16.3779 24.6667 15.3333 23.622 15.3333 22.3334V20Z" stroke="#ACB5BB" stroke-width="2" stroke-linejoin="round"/>
</svg>
