<svg width="22" height="22" viewBox="0 0 22 22" fill="none" xmlns="http://www.w3.org/2000/svg">
<path d="M4.95003 1.92502H17.05C18.0584 1.92502 18.8834 2.75002 18.8834 3.75835V5.77502C18.8834 6.50835 18.425 7.42502 17.9667 7.88335L14.025 11.3667C13.475 11.825 13.1084 12.7417 13.1084 13.475V17.4167C13.1084 17.9667 12.7417 18.7 12.2834 18.975L11 19.8C9.80837 20.5334 8.15837 19.7084 8.15837 18.2417V13.3834C8.15837 12.7417 7.7917 11.9167 7.42503 11.4584L3.9417 7.79169C3.48337 7.33335 3.1167 6.50835 3.1167 5.95835V3.85002C3.1167 2.75002 3.9417 1.92502 4.95003 1.92502Z" stroke="white" stroke-width="1.5" stroke-miterlimit="10" stroke-linecap="round" stroke-linejoin="round"/>
<path d="M10.0192 1.92502L5.5 9.16669" stroke="white" stroke-width="1.5" stroke-miterlimit="10" stroke-linecap="round" stroke-linejoin="round"/>
</svg>
