<svg width="29" height="28" viewBox="0 0 29 28" fill="none" xmlns="http://www.w3.org/2000/svg">
<path fill-rule="evenodd" clip-rule="evenodd" d="M17.9999 19.8334V24.7917H10.9999V19.8334C10.9999 17.9004 12.5669 16.3334 14.4999 16.3334C16.4329 16.3334 17.9999 17.9004 17.9999 19.8334ZM26.1666 24.7917H23.8333V7.00004C23.8333 4.42271 21.7439 2.33337 19.1666 2.33337H9.83325C7.25592 2.33337 5.16659 4.42271 5.16659 7.00004V24.7917H2.83325C2.35 24.7917 1.95825 25.1835 1.95825 25.6667C1.95825 26.15 2.35 26.5417 2.83325 26.5417H26.1666C26.6498 26.5417 27.0416 26.15 27.0416 25.6667C27.0416 25.1835 26.6498 24.7917 26.1666 24.7917ZM15.3749 5.83337C15.3749 5.35013 14.9832 4.95837 14.4999 4.95837C14.0167 4.95837 13.6249 5.35013 13.6249 5.83337V8.45837H10.9999C10.5167 8.45837 10.1249 8.85013 10.1249 9.33337C10.1249 9.81662 10.5167 10.2084 10.9999 10.2084H13.6249V12.8334C13.6249 13.3166 14.0167 13.7084 14.4999 13.7084C14.9832 13.7084 15.3749 13.3166 15.3749 12.8334V10.2084H17.9999C18.4832 10.2084 18.8749 9.81662 18.8749 9.33337C18.8749 8.85013 18.4832 8.45837 17.9999 8.45837H15.3749V5.83337Z" fill="#DC1C3D"/>
</svg>
