<svg width="28" height="28" viewBox="0 0 28 28" fill="none" xmlns="http://www.w3.org/2000/svg">
<ellipse cx="14" cy="19.25" rx="7" ry="2.91667" stroke="#ACB5BB" stroke-width="2" stroke-linejoin="round"/>
<circle cx="14" cy="9.33337" r="3.5" stroke="#ACB5BB" stroke-width="2" stroke-linejoin="round"/>
<path fill-rule="evenodd" clip-rule="evenodd" d="M7.51987 15.4717C6.07487 15.5318 4.74749 15.7921 3.71707 16.2043C3.12825 16.4398 2.59302 16.7422 2.19069 17.1226C1.78651 17.5049 1.4585 18.0263 1.4585 18.6666C1.4585 19.3069 1.78651 19.8284 2.19069 20.2106C2.59302 20.5911 3.12825 20.8934 3.71707 21.129C4.30016 21.3622 4.97834 21.5468 5.71912 21.674C5.14322 21.0528 4.78177 20.3587 4.68999 19.6227C4.57747 19.5848 4.46971 19.5452 4.36701 19.5041C3.9002 19.3174 3.58116 19.1169 3.39313 18.9391C3.20827 18.7643 3.20848 18.672 3.2085 18.6667L3.2085 18.6666L3.2085 18.6665C3.20848 18.6613 3.20827 18.5689 3.39313 18.3941C3.58116 18.2163 3.9002 18.0158 4.36701 17.8291C4.60379 17.7344 4.86751 17.6476 5.15435 17.5709C5.63699 16.7661 6.45705 16.0486 7.51987 15.4717Z" fill="#ACB5BB"/>
<path fill-rule="evenodd" clip-rule="evenodd" d="M23.3101 19.6227C23.2183 20.3587 22.8569 21.0528 22.281 21.674C23.0218 21.5468 23.6999 21.3622 24.283 21.129C24.8719 20.8934 25.4071 20.5911 25.8094 20.2106C26.2136 19.8284 26.5416 19.3069 26.5416 18.6666C26.5416 18.0263 26.2136 17.5049 25.8094 17.1226C25.4071 16.7422 24.8719 16.4398 24.283 16.2043C23.2526 15.7921 21.9252 15.5318 20.4802 15.4717C21.5431 16.0486 22.3631 16.7661 22.8458 17.5709C23.1326 17.6476 23.3963 17.7344 23.6331 17.8291C24.0999 18.0158 24.4189 18.2163 24.607 18.3941C24.7918 18.5689 24.7916 18.6613 24.7916 18.6665V18.6666V18.6667C24.7916 18.672 24.7918 18.7643 24.607 18.9391C24.4189 19.1169 24.0999 19.3174 23.6331 19.5041C23.5304 19.5452 23.4226 19.5848 23.3101 19.6227Z" fill="#ACB5BB"/>
<path fill-rule="evenodd" clip-rule="evenodd" d="M19.267 11.8442C19.0104 12.3813 18.6742 12.8731 18.2734 13.3041C18.7352 13.5616 19.2673 13.7083 19.8335 13.7083C21.6054 13.7083 23.0419 12.2719 23.0419 10.5C23.0419 8.72805 21.6054 7.29163 19.8335 7.29163C19.7119 7.29163 19.5918 7.2984 19.4737 7.31158C19.6744 7.8548 19.7965 8.43608 19.8264 9.04164C19.8287 9.04163 19.8311 9.04163 19.8335 9.04163C20.6389 9.04163 21.2919 9.69454 21.2919 10.5C21.2919 11.3054 20.6389 11.9583 19.8335 11.9583C19.6326 11.9583 19.4412 11.9177 19.267 11.8442Z" fill="#ACB5BB"/>
<path fill-rule="evenodd" clip-rule="evenodd" d="M8.52669 7.31158C8.40855 7.2984 8.28848 7.29163 8.16683 7.29163C6.39492 7.29163 4.9585 8.72805 4.9585 10.5C4.9585 12.2719 6.39492 13.7083 8.16683 13.7083C8.7331 13.7083 9.26511 13.5616 9.72691 13.3041C9.32619 12.8731 8.9899 12.3813 8.73337 11.8442C8.55919 11.9177 8.36775 11.9583 8.16683 11.9583C7.36141 11.9583 6.7085 11.3054 6.7085 10.5C6.7085 9.69454 7.36141 9.04163 8.16683 9.04163C8.16922 9.04163 8.17161 9.04163 8.17399 9.04164C8.20381 8.43608 8.32597 7.8548 8.52669 7.31158Z" fill="#ACB5BB"/>
</svg>
